# This file uses centimeters as units for non-parametric coordinates.

g default
v -38.230656 0.000000 -0.000000
v -50.974201 0.000000 0.000000
v -25.487099 0.000000 -0.000000
v -12.743549 0.000000 -0.000000
v 0.000000 0.000000 0.000000
v 12.743553 0.000000 0.000000
v 25.487099 0.000000 -0.000000
v 38.230656 0.000000 -0.000000
v 50.974205 0.000000 0.000000
v -50.974201 0.000000 -95.988472
v 50.974205 0.000000 -95.988472
vt 0.900000 0.500000
vt 0.900000 0.900000
vt 0.100000 0.900000
vt 0.100000 0.500000
vt 0.200000 0.500000
vt 0.300000 0.500000
vt 0.400000 0.500000
vt 0.500000 0.500000
vt 0.600000 0.500000
vt 0.700000 0.500000
vt 0.800000 0.500000
vn 0.000000 1.000000 -0.000000
vn 0.000000 1.000000 -0.000000
vn 0.000000 1.000000 -0.000000
vn 0.000000 1.000000 -0.000000
vn 0.000000 1.000000 -0.000000
vn 0.000000 1.000000 -0.000000
vn 0.000000 1.000000 -0.000000
vn 0.000000 1.000000 -0.000000
vn 0.000000 1.000000 -0.000000
vn 0.000000 1.000000 -0.000000
vn 0.000000 1.000000 -0.000000
s off
g polySurface12 PlayArea Battle_Arena
f 9/1/1 11/2/2 10/3/3 2/4/4 1/5/5 3/6/6 4/7/7 5/8/8 6/9/9 7/10/10 8/11/11
